<?xml version="1.0"?>
<svg xmlns:rdf="http://www.w3.org/1999/02/22-rdf-syntax-ns#" xmlns="http://www.w3.org/2000/svg" xmlns:cc="http://creativecommons.org/ns#" xmlns:dc="http://purl.org/dc/elements/1.1/" xmlns:svg="http://www.w3.org/2000/svg" id="svg2758" viewBox="0 0 119.21 182.41" version="1.0">
  <g id="layer1" stroke-linejoin="round" stroke-dashoffset="1.5" transform="translate(-371.82 -506.87)" stroke="#000" stroke-linecap="round">
    <path id="path3308" stroke-width="2" fill="#fff" d="m405.06 541.85c-7.59 2.7-5.93 11.06 0.72 10.71l-0.72-10.71z"/>
    <path id="path3310" stroke-width="2" fill="#fff" d="m462.39 550.72c7.67-2.47 6.27-10.88-0.38-10.74l0.38 10.74z"/>
    <path id="path3312" stroke-width="2" fill="#fff" d="m405.42 543.28l-1.17 22.2c-0.44 6.6-0.89 7.45-1.33 10.66 14.58 3.58 30.53 2.3 49.59 0.47 4.69-0.45 7.91-1.78 11.84-2.97l-1.14-11-2.43-26.86-55.36 7.5z"/>
    <path id="path3314" stroke-width="2" fill="#fff" d="m424.71 576.14c-0.6 4.28-2.98 16.78-3.57 21.07 6.9 7.31 18.8 4.6 25.71 0.71-0.48-5.64-4.17-19.95-4.64-24.64l-17.5 2.86z"/>
    <path id="path3316" stroke-width="2" fill="#fff" d="m462.92 543.64c-0.25 15.69-11.77 27.87-26.04 33.2-12.95 2.16-23.69-8.91-30.18-22.37-3.55-12.2-3.05-27.08 7.3-34.59 10.4-8.01 25.79-8.95 36.84-1.68 9.04 5.69 12.31 14.66 12.08 25.44z"/>
    <path id="path3318" stroke-width="9.2192" transform="matrix(.19497 0 0 .24138 369.34 438.4)" d="m315.71 452.36a1.7857 2.1429 0 1 1 -3.57 0 1.7857 2.1429 0 1 1 3.57 0z"/>
    <path id="path3320" stroke-width="2" fill="#fff" d="m405.06 540.78c7.19-1.34 17.51-3.46 23.8-7.51 4.59-2.96 12.5-6.56 16.56-10.71 6.13 7.44 8.27 11.74 17.14 16.43-1.82-30.7-30.45-37.92-47.43-25.02-6.92 5.25-10.15 15.74-10.07 26.81z"/>
    <path id="path3332" stroke-width="2" fill="#fff" d="m386.75 628.44l85.67-1.06 17.43 43.91-117.03 0.71 13.93-43.56z"/>
    <path id="path3324" stroke-width="2" fill="#fff" d="m467.67 648.8c10-12.22 19.47-17.93 22.07-34.18-5.5-12-18.9-25.65-32.4-28.72l-12.28-0.84c-8.32 19.48-14.38 13.99-21.77 0.41-4.67-0.35-11.86 0.75-17.48 2.29-7.41 15.45-9.47 24.14-13.77 40.7l15.24-0.36 56.5-0.15-2.62-23.94c8.87 8.27 5.02 4.28 12.61 12.31-6.86 15.64-5.65 9.27-16.63 22.89l10.53 9.59z"/>
    <path id="path3326" stroke-width="2" fill="#fff" d="m405.78 588.64z"/>
    <path id="path3328" stroke-width="2" d="m411.68 610.27l-2.45 16.69"/>
    <path id="path3330" stroke-width="1.6" fill="#fff" d="m426.2 565.3c6.33 10.53 12.09 7.33 15.71-1.07-4.69 1.44-10.07 1.52-15.71 1.07z"/>
    <path id="path3334" stroke-width="9.2192" transform="matrix(.19497 0 0 .24138 378.14 438.04)" d="m315.71 452.36a1.7857 2.1429 0 1 1 -3.57 0 1.7857 2.1429 0 1 1 3.57 0z"/>
    <path id="path3336" stroke-width="1.5" fill="#fff" d="m432.5 556.79c0.9 1.62 3.94 1.75 5.84-0.28"/>
    <path id="path3338" stroke-width="2" fill="#fff" d="m416.56 666.7l42.5-1.07-13.21-28.57h-23.93l-5.36 29.64z"/>
    <path id="path3342" stroke-width="2" fill="#fff" d="m455 626.05l-13.93 31.25 0.17 4.49 3.58-2.53 16.08-30.89-5.9-2.32z"/>
    <path id="path3340" stroke-width="1.8" fill="#fff" d="m457.64 640.14l-9.29 2.14c-3.73 1.78-7.99 8.35-7.94 12.97 2.68 3.15 7.41 0.14 11.01 0.54l14.61-7.97-8.39-7.68z"/>
    <path id="path2529" stroke-width="2" fill="#fff" d="m373.04 671.85l0.75 16.43 115-0.71 1.24-16.43-116.99 0.71z"/>
  </g>
  <metadata>
    <rdf:RDF>
      <cc:Work>
        <dc:format>image/svg+xml</dc:format>
        <dc:type rdf:resource="http://purl.org/dc/dcmitype/StillImage"/>
        <cc:license rdf:resource="http://creativecommons.org/licenses/publicdomain/"/>
        <dc:publisher>
          <cc:Agent rdf:about="http://openclipart.org/">
            <dc:title>Openclipart</dc:title>
          </cc:Agent>
        </dc:publisher>
        <dc:title>&#xC9;l&#xE8;ve &#xE9;crivant / Student writing</dc:title>
        <dc:date>2010-04-23T01:32:09</dc:date>
        <dc:description>black and white, clip art, clipart, colouring book, girl, outline, people, school, student, write, writing, </dc:description>
        <dc:source>http://openclipart.org/detail/50281/&#xC9;l&#xE8;ve-&#xE9;crivant-/-student-writing-by-lmproulx</dc:source>
        <dc:creator>
          <cc:Agent>
            <dc:title>lmproulx</dc:title>
          </cc:Agent>
        </dc:creator>
        <dc:subject>
          <rdf:Bag>
            <rdf:li>black and white</rdf:li>
            <rdf:li>clip art</rdf:li>
            <rdf:li>clipart</rdf:li>
            <rdf:li>colouring book</rdf:li>
            <rdf:li>girl</rdf:li>
            <rdf:li>outline</rdf:li>
            <rdf:li>people</rdf:li>
            <rdf:li>school</rdf:li>
            <rdf:li>student</rdf:li>
            <rdf:li>write</rdf:li>
            <rdf:li>writing</rdf:li>
          </rdf:Bag>
        </dc:subject>
      </cc:Work>
      <cc:License rdf:about="http://creativecommons.org/licenses/publicdomain/">
        <cc:permits rdf:resource="http://creativecommons.org/ns#Reproduction"/>
        <cc:permits rdf:resource="http://creativecommons.org/ns#Distribution"/>
        <cc:permits rdf:resource="http://creativecommons.org/ns#DerivativeWorks"/>
      </cc:License>
    </rdf:RDF>
  </metadata>
</svg>
